<?xml version="1.0" encoding="utf-8"?>
<!-- Generator: Adobe Illustrator 19.0.0, SVG Export Plug-In . SVG Version: 6.00 Build 0)  -->
<svg version="1.1" id="Layer_1" xmlns="http://www.w3.org/2000/svg" xmlns:xlink="http://www.w3.org/1999/xlink" x="0px" y="0px"
	 viewBox="0 0 850 116" style="enable-background:new 0 0 850 116;" xml:space="preserve">
<style type="text/css">
	.st0{fill:#F4EFD7;}
	.st1{fill:#009167;}
	.st2{fill:#FBEC31;}
	.st3{fill:#ED1944;}
</style>
<g>
	<g>
		<rect x="794.6" y="0" class="st0" width="55.4" height="55.4"/>
	</g>
	<g>
		<rect x="733.4" y="0" class="st0" width="55.4" height="55.4"/>
	</g>
	<g>
		<rect x="672.3" y="0" class="st0" width="55.4" height="55.4"/>
	</g>
	<g>
		<rect x="611.2" y="0" class="st1" width="55.4" height="55.4"/>
	</g>
	<g>
		<rect x="550.1" y="0" class="st1" width="55.4" height="55.4"/>
	</g>
	<g>
		<rect x="489" y="0" class="st2" width="55.4" height="55.4"/>
	</g>
	<g>
		<rect x="427.8" y="0" class="st0" width="55.4" height="55.4"/>
	</g>
	<g>
		<rect x="366.7" y="0" class="st2" width="55.4" height="55.4"/>
	</g>
	<g>
		<rect x="305.6" y="0" class="st2" width="55.4" height="55.4"/>
	</g>
	<g>
		<rect x="244.5" y="0" class="st2" width="55.4" height="55.4"/>
	</g>
	<g>
		<rect x="183.4" y="0" class="st0" width="55.4" height="55.4"/>
	</g>
	<g>
		<rect x="122.2" y="0" class="st3" width="55.4" height="55.4"/>
	</g>
	<g>
		<rect x="61.1" y="0" class="st2" width="55.4" height="55.4"/>
	</g>
	<g>
		<rect x="0" y="0" class="st2" width="55.4" height="55.4"/>
	</g>
</g>
<g>
	<g>
		<rect x="794.6" y="60.5" class="st0" width="55.4" height="55.4"/>
	</g>
	<g>
		<rect x="733.4" y="60.5" class="st0" width="55.4" height="55.4"/>
	</g>
	<g>
		<rect x="672.3" y="60.5" class="st0" width="55.4" height="55.4"/>
	</g>
	<g>
		<rect x="611.2" y="60.5" class="st1" width="55.4" height="55.4"/>
	</g>
	<g>
		<rect x="550.1" y="60.5" class="st1" width="55.4" height="55.4"/>
	</g>
	<g>
		<rect x="489" y="60.5" class="st2" width="55.4" height="55.4"/>
	</g>
	<g>
		<rect x="427.8" y="60.5" class="st0" width="55.4" height="55.4"/>
	</g>
	<g>
		<rect x="366.7" y="60.5" class="st2" width="55.4" height="55.4"/>
	</g>
	<g>
		<rect x="305.6" y="60.5" class="st2" width="55.4" height="55.4"/>
	</g>
	<g>
		<rect x="244.5" y="60.5" class="st2" width="55.4" height="55.4"/>
	</g>
	<g>
		<rect x="183.4" y="60.5" class="st3" width="55.4" height="55.4"/>
	</g>
	<g>
		<rect x="122.2" y="60.5" class="st3" width="55.4" height="55.4"/>
	</g>
	<g>
		<rect x="61.1" y="60.5" class="st2" width="55.4" height="55.4"/>
	</g>
	<g>
		<rect x="0" y="60.5" class="st2" width="55.4" height="55.4"/>
	</g>
</g>
</svg>
